<svg width="55" height="55" viewBox="0 0 55 55" fill="none" xmlns="http://www.w3.org/2000/svg">
<g id="Group 2085664716">
<circle id="Ellipse 7838" cx="27.5" cy="27.5" r="27.5" fill="black"/>
<g id="Vector">
<path d="M32.5873 26.1849C32.5616 24.6307 33.233 23.4211 34.5994 22.5555C33.829 21.4352 32.6927 20.8055 31.1899 20.6648C30.6554 20.6145 29.9722 20.7408 29.1408 21.0468C28.2463 21.3785 27.7429 21.5433 27.6316 21.5433C27.3957 21.5433 26.9425 21.4042 26.2706 21.1233C25.6002 20.8429 25.0288 20.7033 24.557 20.7033C23.762 20.7162 23.0226 20.936 22.3399 21.3624C21.6568 21.7894 21.1105 22.372 20.7013 23.1097C20.178 24.0262 19.9175 25.1213 19.9175 26.3946C19.9175 27.5406 20.1095 28.686 20.4947 29.833C20.8548 30.9282 21.3149 31.8896 21.8734 32.7161C22.3699 33.4678 22.8059 34.0151 23.1778 34.3597C23.7122 34.8941 24.2585 35.1493 24.8181 35.1231C25.1781 35.1103 25.6494 34.9765 26.2337 34.7213C26.7799 34.4806 27.3267 34.3597 27.8734 34.3597C28.3822 34.3597 28.9097 34.48 29.457 34.7213C30.0653 34.9765 30.5623 35.1038 30.9475 35.1038C31.5189 35.0787 32.0528 34.8305 32.5504 34.3602C32.7237 34.2066 32.9131 33.9969 33.118 33.7294C33.3229 33.4614 33.5498 33.1431 33.7985 32.7745C33.9719 32.5075 34.1425 32.2207 34.3111 31.9147C34.479 31.6092 34.631 31.285 34.7674 30.9405C34.8289 30.8003 34.8846 30.6575 34.9349 30.5109C34.9841 30.3648 35.0338 30.2156 35.0836 30.0626C34.624 29.8593 34.2078 29.5714 33.8354 29.2023C33.0169 28.3886 32.6001 27.3817 32.5873 26.1849Z" fill="white"/>
<path d="M30.239 19.1185C30.8976 18.2908 31.2271 17.3995 31.2271 16.444V16.2535C31.2271 16.1893 31.2207 16.1262 31.2084 16.062C30.7488 16.0877 30.2615 16.2343 29.7457 16.5012C29.2305 16.7693 28.8052 17.1069 28.4692 17.514C27.7989 18.3165 27.4634 19.1757 27.4634 20.0927V20.2735C27.4634 20.3313 27.4698 20.3917 27.4821 20.4559C28.5136 20.5576 29.4322 20.1114 30.239 19.1185Z" fill="white"/>
</g>
</g>
</svg>
