<svg width="56" height="56" viewBox="0 0 56 56" fill="none" xmlns="http://www.w3.org/2000/svg">
<g id="Group 2085664691">
<circle id="Ellipse 7837" cx="28.3525" cy="28.0107" r="27" fill="white" stroke="#EAEAEA"/>
<g id="Group">
<path id="Vector" d="M37.6761 28.2268C37.6761 27.5522 37.6156 26.9035 37.5031 26.2808H28.5427V29.9609H33.6629C33.4424 31.1502 32.7721 32.1578 31.7645 32.8324V35.2196H34.8392C36.6382 33.5633 37.6761 31.1242 37.6761 28.2268Z" fill="#4285F4"/>
<path id="Vector_2" d="M28.5428 37.5246C31.1115 37.5246 33.2651 36.6727 34.8393 35.2197L31.7646 32.8326C30.9126 33.4034 29.8228 33.7407 28.5428 33.7407C26.0648 33.7407 23.9675 32.0671 23.2193 29.8184H20.0408V32.2833C21.6063 35.3927 24.8237 37.5246 28.5428 37.5246Z" fill="#34A853"/>
<path id="Vector_3" d="M23.2192 29.8185C23.0289 29.2477 22.9209 28.6379 22.9209 28.0109C22.9209 27.3838 23.0289 26.7741 23.2192 26.2032V23.7383H20.0407C19.3964 25.0227 19.0288 26.4757 19.0288 28.0109C19.0288 29.5461 19.3964 30.9991 20.0407 32.2835L23.2192 29.8185Z" fill="#FBBC04"/>
<path id="Vector_4" d="M28.5428 22.281C29.9396 22.281 31.1937 22.761 32.1797 23.7038L34.9085 20.975C33.2608 19.4398 31.1072 18.4971 28.5428 18.4971C24.8237 18.4971 21.6063 20.629 20.0408 23.7384L23.2193 26.2033C23.9675 23.9546 26.0648 22.281 28.5428 22.281Z" fill="#E94235"/>
</g>
</g>
</svg>
